<svg width="60" height="52" viewBox="0 0 60 52" fill="none" xmlns="http://www.w3.org/2000/svg">
<rect y="34.667" width="8.57141" height="8.66666" fill="#11EDD3"/>
<rect y="43.333" width="8.57141" height="8.66668" fill="#11EDD3"/>
<rect y="26" width="8.57141" height="8.66666" fill="#11EDD3"/>
<rect y="17.333" width="8.57141" height="8.66667" fill="#11EDD3"/>
<rect x="8.57129" y="34.667" width="8.57141" height="8.66666" fill="#11EDD3"/>
<rect x="8.57129" y="43.333" width="8.57141" height="8.66668" fill="#11EDD3"/>
<rect x="17.1426" y="34.667" width="8.57141" height="8.66666" fill="#11EDD3"/>
<rect x="17.1426" y="43.333" width="8.57141" height="8.66668" fill="#11EDD3"/>
<rect x="8.57129" y="26" width="8.57141" height="8.66666" fill="#11EDD3"/>
<rect x="17.1426" y="26" width="8.57141" height="8.66666" fill="#11EDD3"/>
<rect x="8.57129" y="17.333" width="8.57141" height="8.66667" fill="#11EDD3"/>
<rect x="8.57129" y="8.66699" width="8.57141" height="8.66667" fill="#11EDD3"/>
<rect x="17.1426" width="8.57141" height="8.66667" fill="#11EDD3"/>
<rect x="34.2861" y="34.667" width="8.57141" height="8.66666" fill="#11EDD3"/>
<rect x="34.2861" y="43.333" width="8.57141" height="8.66668" fill="#11EDD3"/>
<rect x="34.2861" y="26" width="8.57141" height="8.66666" fill="#11EDD3"/>
<rect x="34.2861" y="17.333" width="8.57141" height="8.66667" fill="#11EDD3"/>
<rect x="42.8574" y="34.667" width="8.57141" height="8.66666" fill="#11EDD3"/>
<rect x="42.8574" y="43.333" width="8.57141" height="8.66668" fill="#11EDD3"/>
<rect x="51.4287" y="34.667" width="8.57141" height="8.66666" fill="#11EDD3"/>
<rect x="51.4287" y="43.333" width="8.57141" height="8.66668" fill="#11EDD3"/>
<rect x="42.8574" y="26" width="8.57141" height="8.66666" fill="#11EDD3"/>
<rect x="51.4287" y="26" width="8.57141" height="8.66666" fill="#11EDD3"/>
<rect x="42.8574" y="17.333" width="8.57141" height="8.66667" fill="#11EDD3"/>
<rect x="42.8574" y="8.66699" width="8.57141" height="8.66667" fill="#11EDD3"/>
<rect x="51.4287" width="8.57141" height="8.66667" fill="#11EDD3"/>
</svg>
