<svg width="356" height="356" viewBox="0 0 356 356" fill="none" xmlns="http://www.w3.org/2000/svg">
<rect width="356" height="356" fill="white"/>
<rect x="0.5" y="0.5" width="355" height="355" stroke="black" stroke-opacity="0.01"/>
<path d="M108.617 155.68H95.1773V142.24H108.617V155.68ZM108.617 128.8H135.497V196H122.057V182.56H81.7373V155.776H95.1773V169.12H122.057V142.24H108.617V128.8Z" fill="#11EDD3"/>
<path d="M158.552 128.896H198.872V155.776H185.432V155.68H171.992V169.12H158.552V155.68H171.992V142.336H158.552V128.896ZM185.432 182.464V155.776H198.872V182.464H185.432ZM158.552 182.464H185.432V195.904H145.112V155.776H158.552V182.464ZM158.552 155.776H145.112V142.336H158.552V155.776Z" fill="#11EDD3"/>
<path d="M235.367 155.68H221.927V142.24H235.367V155.68ZM235.367 128.8H262.247V196H248.807V182.56H208.487V155.776H221.927V169.12H248.807V142.24H235.367V128.8Z" fill="#11EDD3"/>
<path d="M84.3336 220.176H94.4136V223.56H84.3336V220.176ZM91.0536 230.28H87.6936V226.92H91.0536V230.28ZM80.9736 237V223.56H84.3336V237H80.9736Z" fill="black"/>
<path d="M100.417 219.6H97.3694V237H100.417V219.6Z" fill="black"/>
<path d="M106.98 219.6H103.932V237H115.74V234.432H106.98V219.6Z" fill="black"/>
<path d="M117.502 237H129.814V234.432H120.55V229.32H129.31V226.8H120.55V222.144H129.814V219.6H117.502V237Z" fill="black"/>
<path d="M140.607 223.584H137.247V220.224H140.607V223.584ZM147.327 220.224H150.687V226.944H147.327V220.224ZM143.967 226.944H140.607V223.584H143.967V226.944ZM147.327 230.28V226.944H150.687V237H147.327V233.64H143.967V230.28H147.327ZM137.247 226.944H143.967V230.304H140.607V237H137.247V226.944Z" fill="black"/>
<path d="M156.091 228.288C156.091 224.064 158.371 221.784 161.251 221.784C164.131 221.784 166.411 224.064 166.411 228.288C166.411 232.536 164.131 234.816 161.251 234.816C158.371 234.816 156.091 232.536 156.091 228.288ZM169.555 228.288C169.555 222.912 166.363 219.288 161.251 219.288C156.139 219.288 152.947 222.912 152.947 228.288C152.947 233.64 156.139 237.312 161.251 237.312C166.363 237.312 169.555 233.64 169.555 228.288Z" fill="black"/>
<path d="M175.131 237H178.179V222.144H183.651V219.6H169.659V222.144H175.131V237Z" fill="black"/>
<path d="M193.857 220.176H203.937V223.56H193.857V220.176ZM200.577 230.28H197.217V226.92H200.577V230.28ZM190.497 237V223.56H193.857V237H190.497Z" fill="black"/>
<path d="M209.341 228.288C209.341 224.064 211.621 221.784 214.501 221.784C217.381 221.784 219.661 224.064 219.661 228.288C219.661 232.536 217.381 234.816 214.501 234.816C211.621 234.816 209.341 232.536 209.341 228.288ZM222.805 228.288C222.805 222.912 219.613 219.288 214.501 219.288C209.389 219.288 206.197 222.912 206.197 228.288C206.197 233.64 209.389 237.312 214.501 237.312C219.613 237.312 222.805 233.64 222.805 228.288Z" fill="black"/>
<path d="M225.355 219.6V229.752C225.355 235.368 227.491 237.312 232.483 237.312C237.547 237.312 239.587 235.152 239.587 229.656V219.6H236.539V229.776C236.539 232.968 235.675 234.816 232.483 234.816C229.243 234.816 228.403 233.064 228.403 229.872V219.6H225.355Z" fill="black"/>
<path d="M257.223 237V219.6H254.271V233.496L246.903 219.6H242.823V237H245.775V223.104L253.143 237H257.223Z" fill="black"/>
<path d="M272.033 228.288C272.033 233.784 268.673 234.552 265.337 234.552H263.777V222.048H265.337C268.673 222.048 272.033 222.792 272.033 228.288ZM260.729 219.6V237H265.481C270.977 237 275.201 235.08 275.201 228.288C275.201 221.496 270.977 219.6 265.481 219.6H260.729Z" fill="black"/>
</svg>
