<svg width="34" height="49" viewBox="0 0 34 49" fill="none" xmlns="http://www.w3.org/2000/svg">
<path d="M19.4287 5.45609L19.4287 0.655945L14.5715 0.655945L14.5715 5.45609L19.4287 5.45609Z" fill="#161616"/>
<path d="M19.4287 10.2564L19.4287 5.45624L14.5715 5.45624L14.5715 10.2564L19.4287 10.2564Z" fill="#161616"/>
<path d="M19.4287 15.0564L19.4287 10.2563L14.5715 10.2563L14.5715 15.0564L19.4287 15.0564Z" fill="#161616"/>
<path d="M19.4287 19.8557L19.4287 15.0555L14.5715 15.0555L14.5715 19.8557L19.4287 19.8557Z" fill="#161616"/>
<path d="M19.4287 24.6558L19.4287 19.8557L14.5715 19.8557L14.5715 24.6558L19.4287 24.6558Z" fill="#161616"/>
<path d="M19.4287 29.4561L19.4287 24.6559L14.5715 24.6559L14.5715 29.4561L19.4287 29.4561Z" fill="#161616"/>
<path d="M19.4287 34.2562L19.4287 29.456L14.5715 29.456L14.5715 34.2562L19.4287 34.2562Z" fill="#161616"/>
<path d="M14.5713 39.0565L14.5713 34.2563L9.71405 34.2563L9.71405 39.0565L14.5713 39.0565Z" fill="#161616"/>
<path d="M19.4287 43.8557L19.4287 39.0556L14.5715 39.0556L14.5715 43.8557L19.4287 43.8557Z" fill="#161616"/>
<path d="M19.4287 48.656L19.4287 43.8559L14.5715 43.8559L14.5715 48.656L19.4287 48.656Z" fill="#161616"/>
<path d="M29.1426 39.0565L29.1426 34.2563L24.2853 34.2563L24.2853 39.0565L29.1426 39.0565Z" fill="#161616"/>
<path d="M34 34.2562L34 29.456L29.1428 29.456L29.1428 34.2562L34 34.2562Z" fill="#161616"/>
<path d="M9.71387 39.0565L9.71387 34.2563L4.85662 34.2563L4.85662 39.0565L9.71387 39.0565Z" fill="#161616"/>
<path d="M4.85742 34.2562L4.85742 29.456L0.000179291 29.456L0.000179081 34.2562L4.85742 34.2562Z" fill="#161616"/>
<path d="M24.2852 43.8557L24.2852 39.0556L19.4279 39.0556L19.4279 43.8557L24.2852 43.8557Z" fill="#161616"/>
<path d="M14.5713 43.8557L14.5713 39.0556L9.71405 39.0556L9.71405 43.8557L14.5713 43.8557Z" fill="#161616"/>
</svg>
