<svg width="61" height="43" viewBox="0 0 61 43" fill="none" xmlns="http://www.w3.org/2000/svg">
<g clip-path="url(#clip0)">
<path d="M54.7899 24.499L60.79 24.499L60.79 18.4989L54.7899 18.4989L54.7899 24.499Z" fill="#161616"/>
<path d="M48.7894 24.499L54.7896 24.499L54.7896 18.4989L48.7894 18.4989L48.7894 24.499Z" fill="#161616"/>
<path d="M42.7894 24.499L48.7896 24.499L48.7896 18.4989L42.7894 18.4989L42.7894 24.499Z" fill="#161616"/>
<path d="M36.7903 24.499L42.7905 24.499L42.7905 18.4989L36.7903 18.4989L36.7903 24.499Z" fill="#161616"/>
<path d="M30.7903 24.499L36.7905 24.499L36.7905 18.4989L30.7904 18.4989L30.7903 24.499Z" fill="#161616"/>
<path d="M24.7899 24.499L30.79 24.499L30.79 18.4989L24.7899 18.4989L24.7899 24.499Z" fill="#161616"/>
<path d="M18.7899 24.499L24.79 24.499L24.79 18.4989L18.7899 18.4989L18.7899 24.499Z" fill="#161616"/>
<path d="M12.7894 18.499L18.7896 18.499L18.7896 12.4989L12.7894 12.4989L12.7894 18.499Z" fill="#161616"/>
<path d="M6.79036 24.499L12.7905 24.499L12.7905 18.4989L6.79036 18.4989L6.79036 24.499Z" fill="#161616"/>
<path d="M0.78986 24.499L6.79004 24.499L6.79004 18.4989L0.78986 18.4989L0.78986 24.499Z" fill="#161616"/>
<path d="M12.7894 36.499L18.7896 36.499L18.7896 30.4989L12.7894 30.4989L12.7894 36.499Z" fill="#161616"/>
<path d="M18.7899 42.499L24.79 42.499L24.79 36.4989L18.7899 36.4989L18.7899 42.499Z" fill="#161616"/>
<path d="M12.7894 12.499L18.7896 12.499L18.7896 6.49889L12.7894 6.49889L12.7894 12.499Z" fill="#161616"/>
<path d="M18.7899 6.49902L24.79 6.49902L24.79 0.498898L18.7899 0.498897L18.7899 6.49902Z" fill="#161616"/>
<path d="M6.79036 30.499L12.7905 30.499L12.7905 24.4989L6.79036 24.4989L6.79036 30.499Z" fill="#161616"/>
<path d="M6.79036 18.499L12.7905 18.499L12.7905 12.4989L6.79036 12.4989L6.79036 18.499Z" fill="#161616"/>
</g>
<defs>
<clipPath id="clip0">
<rect x="60.79" y="42.5" width="60" height="42" transform="rotate(-180 60.79 42.5)" fill="white"/>
</clipPath>
</defs>
</svg>
