<svg width="48" height="35" viewBox="0 0 48 35" fill="none" xmlns="http://www.w3.org/2000/svg">
<path d="M4.80014 15.0718H0V19.929H4.80014V15.0718Z" fill="#161616"/>
<path d="M9.60092 15.0718H4.80078V19.929H9.60092V15.0718Z" fill="#161616"/>
<path d="M14.4007 15.0718H9.60059V19.929H14.4007V15.0718Z" fill="#161616"/>
<path d="M19.1996 15.0718H14.3994V19.929H19.1996V15.0718Z" fill="#161616"/>
<path d="M23.9994 15.0718H19.1992V19.929H23.9994V15.0718Z" fill="#161616"/>
<path d="M28.8001 15.0718H24V19.929H28.8001V15.0718Z" fill="#161616"/>
<path d="M33.5999 15.0718H28.7998V19.929H33.5999V15.0718Z" fill="#161616"/>
<path d="M38.4007 19.9287H33.6006V24.786H38.4007V19.9287Z" fill="#161616"/>
<path d="M43.1995 15.0718H38.3994V19.929H43.1995V15.0718Z" fill="#161616"/>
<path d="M48.0003 15.0718H43.2002V19.929H48.0003V15.0718Z" fill="#161616"/>
<path d="M38.4007 5.35742H33.6006V10.2147H38.4007V5.35742Z" fill="#161616"/>
<path d="M33.5999 0.500488H28.7998V5.35773H33.5999V0.500488Z" fill="#161616"/>
<path d="M38.4007 24.7861H33.6006V29.6434H38.4007V24.7861Z" fill="#161616"/>
<path d="M33.5999 29.6433H28.7998V34.5006H33.5999V29.6433Z" fill="#161616"/>
<path d="M43.1995 10.2151H38.3994V15.0723H43.1995V10.2151Z" fill="#161616"/>
<path d="M43.1995 19.9287H38.3994V24.786H43.1995V19.9287Z" fill="#161616"/>
</svg>
