<svg width="73" height="35" viewBox="0 0 73 35" fill="none" xmlns="http://www.w3.org/2000/svg">
<path d="M19.6968 4.48657H15.9072V8.2761H19.6968V4.48657Z" fill="#11EDD3"/>
<path d="M23.4868 0.697266H19.6973V4.4868H23.4868V0.697266Z" fill="#11EDD3"/>
<path d="M27.2773 0.697266H23.4878V4.4868H27.2773V0.697266Z" fill="#11EDD3"/>
<path d="M31.0654 0.697266H27.2759V4.4868H31.0654V0.697266Z" fill="#11EDD3"/>
<path d="M72.7495 15.8555H68.96V19.645H72.7495V15.8555Z" fill="#11EDD3"/>
<path d="M68.9614 15.8555H65.1719V19.645H68.9614V15.8555Z" fill="#11EDD3"/>
<path d="M8.32957 15.8555H4.54004V19.645H8.32957V15.8555Z" fill="#11EDD3"/>
<path d="M12.1181 15.8555H8.32861V19.645H12.1181V15.8555Z" fill="#11EDD3"/>
<path d="M72.7495 12.0657H68.96V15.8552H72.7495V12.0657Z" fill="#11EDD3"/>
<path d="M15.9082 4.48657H12.1187V8.2761H15.9082V4.48657Z" fill="#11EDD3"/>
<path d="M19.6968 15.8555H15.9072V19.645H19.6968V15.8555Z" fill="#11EDD3"/>
<path d="M15.9082 15.8555H12.1187V19.645H15.9082V15.8555Z" fill="#11EDD3"/>
<path d="M12.1181 27.2239H8.32861V31.0134H12.1181V27.2239Z" fill="#11EDD3"/>
<path d="M72.7495 19.6448H68.96V23.4343H72.7495V19.6448Z" fill="#11EDD3"/>
<path d="M19.6968 27.2239H15.9072V31.0134H19.6968V27.2239Z" fill="#11EDD3"/>
<path d="M19.6968 31.0134H15.9072V34.803H19.6968V31.0134Z" fill="#11EDD3"/>
<path d="M15.9082 8.27637H12.1187V12.0659H15.9082V8.27637Z" fill="#11EDD3"/>
<path d="M4.53953 12.0657H0.75V15.8552H4.53953V12.0657Z" fill="#11EDD3"/>
<path d="M4.53953 15.8555H0.75V19.645H4.53953V15.8555Z" fill="#11EDD3"/>
<path d="M23.4868 31.0134H19.6973V34.803H23.4868V31.0134Z" fill="#11EDD3"/>
<path d="M27.2773 31.0134H23.4878V34.803H27.2773V31.0134Z" fill="#11EDD3"/>
<path d="M31.0654 31.0134H27.2759V34.803H31.0654V31.0134Z" fill="#11EDD3"/>
<path d="M34.8554 0.697266H31.0659V4.4868H34.8554V0.697266Z" fill="#11EDD3"/>
<path d="M38.645 0.697266H34.8555V4.4868H38.645V0.697266Z" fill="#11EDD3"/>
<path d="M57.5932 4.48657H53.8037V8.2761H57.5932V4.48657Z" fill="#11EDD3"/>
<path d="M34.8554 31.0134H31.0659V34.803H34.8554V31.0134Z" fill="#11EDD3"/>
<path d="M38.645 31.0134H34.8555V34.803H38.645V31.0134Z" fill="#11EDD3"/>
<path d="M42.4341 0.697266H38.6445V4.4868H42.4341V0.697266Z" fill="#11EDD3"/>
<path d="M42.4341 31.0134H38.6445V34.803H42.4341V31.0134Z" fill="#11EDD3"/>
<path d="M46.2246 0.697266H42.4351V4.4868H46.2246V0.697266Z" fill="#11EDD3"/>
<path d="M50.0146 0.697266H46.2251V4.4868H50.0146V0.697266Z" fill="#11EDD3"/>
<path d="M46.2246 31.0134H42.4351V34.803H46.2246V31.0134Z" fill="#11EDD3"/>
<path d="M50.0146 31.0134H46.2251V34.803H50.0146V31.0134Z" fill="#11EDD3"/>
<path d="M53.8032 0.697266H50.0137V4.4868H53.8032V0.697266Z" fill="#11EDD3"/>
<path d="M23.4868 15.8555H19.6973V19.645H23.4868V15.8555Z" fill="#11EDD3"/>
<path d="M27.2773 15.8555H23.4878V19.645H27.2773V15.8555Z" fill="#11EDD3"/>
<path d="M31.0654 15.8555H27.2759V19.645H31.0654V15.8555Z" fill="#11EDD3"/>
<path d="M34.8554 15.8555H31.0659V19.645H34.8554V15.8555Z" fill="#11EDD3"/>
<path d="M38.645 15.8555H34.8555V19.645H38.645V15.8555Z" fill="#11EDD3"/>
<path d="M38.645 12.0657H34.8555V15.8552H38.645V12.0657Z" fill="#11EDD3"/>
<path d="M38.645 8.27637H34.8555V12.0659H38.645V8.27637Z" fill="#11EDD3"/>
<path d="M38.645 4.48657H34.8555V8.2761H38.645V4.48657Z" fill="#11EDD3"/>
<path d="M27.2788 8.27637H23.4893V12.0659H27.2788V8.27637Z" fill="#11EDD3"/>
<path d="M27.2778 23.4346H23.4883V27.2241H27.2778V23.4346Z" fill="#11EDD3"/>
<path d="M31.0654 4.48657H27.2759V8.2761H31.0654V4.48657Z" fill="#11EDD3"/>
<path d="M31.0654 27.2239H27.2759V31.0134H31.0654V27.2239Z" fill="#11EDD3"/>
<path d="M23.4868 12.0657H19.6973V15.8552H23.4868V12.0657Z" fill="#11EDD3"/>
<path d="M23.4878 19.6448H19.6982V23.4343H23.4878V19.6448Z" fill="#11EDD3"/>
<path d="M46.2276 27.2239H50.0171V23.4343H46.2276V27.2239Z" fill="#11EDD3"/>
<path d="M46.2276 12.0659H50.0171V8.27639H46.2276V12.0659Z" fill="#11EDD3"/>
<path d="M42.4356 31.0134H46.2251V27.2239H42.4356V31.0134Z" fill="#11EDD3"/>
<path d="M42.4356 8.27637H46.2251V4.48684H42.4356V8.27637Z" fill="#11EDD3"/>
<path d="M50.0152 23.4343H53.8047V19.6448H50.0152V23.4343Z" fill="#11EDD3"/>
<path d="M50.0152 15.8552H53.8047V12.0657H50.0152V15.8552Z" fill="#11EDD3"/>
<path d="M38.645 27.2239H34.8555V31.0134H38.645V27.2239Z" fill="#11EDD3"/>
<path d="M38.645 23.4343H34.8555V27.2239H38.645V23.4343Z" fill="#11EDD3"/>
<path d="M38.645 19.6448H34.8555V23.4343H38.645V19.6448Z" fill="#11EDD3"/>
<path d="M42.4341 15.8555H38.6445V19.645H42.4341V15.8555Z" fill="#11EDD3"/>
<path d="M46.2246 15.8555H42.4351V19.645H46.2246V15.8555Z" fill="#11EDD3"/>
<path d="M50.0146 15.8555H46.2251V19.645H50.0146V15.8555Z" fill="#11EDD3"/>
<path d="M53.8032 15.8555H50.0137V19.645H53.8032V15.8555Z" fill="#11EDD3"/>
<path d="M53.8032 31.0134H50.0137V34.803H53.8032V31.0134Z" fill="#11EDD3"/>
<path d="M57.5932 27.2239H53.8037V31.0134H57.5932V27.2239Z" fill="#11EDD3"/>
<path d="M57.5932 31.0134H53.8037V34.803H57.5932V31.0134Z" fill="#11EDD3"/>
<path d="M19.6968 0.697266H15.9072V4.4868H19.6968V0.697266Z" fill="#11EDD3"/>
<path d="M57.5932 0.697266H53.8037V4.4868H57.5932V0.697266Z" fill="#11EDD3"/>
<path d="M61.3823 4.48657H57.5928V8.2761H61.3823V4.48657Z" fill="#11EDD3"/>
<path d="M65.1723 4.48657H61.3828V8.2761H65.1723V4.48657Z" fill="#11EDD3"/>
<path d="M65.1723 12.0657H61.3828V15.8552H65.1723V12.0657Z" fill="#11EDD3"/>
<path d="M65.1723 19.6448H61.3828V23.4343H65.1723V19.6448Z" fill="#11EDD3"/>
<path d="M12.1181 4.48657H8.32861V8.2761H12.1181V4.48657Z" fill="#11EDD3"/>
<path d="M12.1181 12.0657H8.32861V15.8552H12.1181V12.0657Z" fill="#11EDD3"/>
<path d="M12.1181 19.6448H8.32861V23.4343H12.1181V19.6448Z" fill="#11EDD3"/>
<path d="M15.9082 27.2239H12.1187V31.0134H15.9082V27.2239Z" fill="#11EDD3"/>
<path d="M57.5932 15.8555H53.8037V19.645H57.5932V15.8555Z" fill="#11EDD3"/>
<path d="M61.3823 15.8555H57.5928V19.645H61.3823V15.8555Z" fill="#11EDD3"/>
<path d="M65.1723 15.8555H61.3828V19.645H65.1723V15.8555Z" fill="#11EDD3"/>
<path d="M61.3823 27.2239H57.5928V31.0134H61.3823V27.2239Z" fill="#11EDD3"/>
<path d="M65.1723 27.2239H61.3828V31.0134H65.1723V27.2239Z" fill="#11EDD3"/>
<path d="M61.3823 8.27637H57.5928V12.0659H61.3823V8.27637Z" fill="#11EDD3"/>
<path d="M61.3823 23.4343H57.5928V27.2239H61.3823V23.4343Z" fill="#11EDD3"/>
<path d="M15.9082 23.4343H12.1187V27.2239H15.9082V23.4343Z" fill="#11EDD3"/>
<path d="M8.32957 8.27637H4.54004V12.0659H8.32957V8.27637Z" fill="#11EDD3"/>
<path d="M8.32957 23.4343H4.54004V27.2239H8.32957V23.4343Z" fill="#11EDD3"/>
<path d="M68.9614 8.27637H65.1719V12.0659H68.9614V8.27637Z" fill="#11EDD3"/>
<path d="M68.9614 23.4343H65.1719V27.2239H68.9614V23.4343Z" fill="#11EDD3"/>
<path d="M4.53953 19.6448H0.75V23.4343H4.53953V19.6448Z" fill="#11EDD3"/>
</svg>
