<svg width="24" height="25" viewBox="0 0 24 25" fill="none" xmlns="http://www.w3.org/2000/svg">
<path d="M11.988 0.14502C5.364 0.14502 0 5.52102 0 12.145C0 18.769 5.364 24.145 11.988 24.145C18.624 24.145 24 18.769 24 12.145C24 5.52102 18.624 0.14502 11.988 0.14502ZM20.304 7.34502H16.764C16.38 5.84502 15.828 4.40502 15.108 3.07302C17.316 3.82902 19.152 5.36502 20.304 7.34502ZM12 2.59302C12.996 4.03302 13.776 5.62902 14.292 7.34502H9.708C10.224 5.62902 11.004 4.03302 12 2.59302ZM2.712 14.545C2.52 13.777 2.4 12.973 2.4 12.145C2.4 11.317 2.52 10.513 2.712 9.74502H6.768C6.672 10.537 6.6 11.329 6.6 12.145C6.6 12.961 6.672 13.753 6.768 14.545H2.712ZM3.696 16.945H7.236C7.62 18.445 8.172 19.885 8.892 21.217C6.684 20.461 4.848 18.937 3.696 16.945ZM7.236 7.34502H3.696C4.848 5.35302 6.684 3.82902 8.892 3.07302C8.172 4.40502 7.62 5.84502 7.236 7.34502ZM12 21.697C11.004 20.257 10.224 18.661 9.708 16.945H14.292C13.776 18.661 12.996 20.257 12 21.697ZM14.808 14.545H9.192C9.084 13.753 9 12.961 9 12.145C9 11.329 9.084 10.525 9.192 9.74502H14.808C14.916 10.525 15 11.329 15 12.145C15 12.961 14.916 13.753 14.808 14.545ZM15.108 21.217C15.828 19.885 16.38 18.445 16.764 16.945H20.304C19.152 18.925 17.316 20.461 15.108 21.217ZM17.232 14.545C17.328 13.753 17.4 12.961 17.4 12.145C17.4 11.329 17.328 10.537 17.232 9.74502H21.288C21.48 10.513 21.6 11.317 21.6 12.145C21.6 12.973 21.48 13.777 21.288 14.545H17.232Z" fill="#161616"/>
</svg>
