<svg width="33" height="33" viewBox="0 0 33 33" fill="none" xmlns="http://www.w3.org/2000/svg">
            <path d="M18.692 4.6731H14.019V9.3461H18.692V4.6731Z" fill="black"></path>
            <path d="M18.692 0H14.019V4.673H18.692V0Z" fill="black"></path>
            <path d="M9.34585 14.019H4.67285V18.692H9.34585V14.019Z" fill="black"></path>
            <path d="M4.673 14.019H0V18.692H4.673V14.019Z" fill="black"></path>
            <path d="M18.692 9.34595H14.019V14.0189H18.692V9.34595Z" fill="black"></path>
            <path d="M18.692 18.6919H14.019V23.3649H18.692V18.6919Z" fill="black"></path>
            <path d="M23.3649 14.019H18.6919V18.692H23.3649V14.019Z" fill="black"></path>
            <path d="M23.3649 9.34595H18.6919V14.0189H23.3649V9.34595Z" fill="black"></path>
            <path d="M14.0192 18.6919H9.34619V23.3649H14.0192V18.6919Z" fill="black"></path>
            <path d="M28.0382 14.019H23.3652V18.692H28.0382V14.019Z" fill="black"></path>
            <path d="M32.7111 14.019H28.0381V18.692H32.7111V14.019Z" fill="black"></path>
            <path d="M18.692 23.365H14.019V28.038H18.692V23.365Z" fill="black"></path>
            <path d="M18.692 28.0381H14.019V32.7111H18.692V28.0381Z" fill="black"></path>
            <path d="M14.0192 14.019H9.34619V18.692H14.0192V14.019Z" fill="black"></path>
          </svg>