<svg width="48" height="34" viewBox="0 0 48 34" fill="none" xmlns="http://www.w3.org/2000/svg">
<path d="M4.80014 14.5713H0V19.4285H4.80014V14.5713Z" fill="#11EDD3"/>
<path d="M9.60092 14.5713H4.80078V19.4285H9.60092V14.5713Z" fill="#11EDD3"/>
<path d="M14.4007 14.5713H9.60059V19.4285H14.4007V14.5713Z" fill="#11EDD3"/>
<path d="M19.1996 14.5713H14.3994V19.4285H19.1996V14.5713Z" fill="#11EDD3"/>
<path d="M23.9994 14.5713H19.1992V19.4285H23.9994V14.5713Z" fill="#11EDD3"/>
<path d="M28.8001 14.5713H24V19.4285H28.8001V14.5713Z" fill="#11EDD3"/>
<path d="M33.5999 14.5713H28.7998V19.4285H33.5999V14.5713Z" fill="#11EDD3"/>
<path d="M38.4007 19.4282H33.6006V24.2855H38.4007V19.4282Z" fill="#11EDD3"/>
<path d="M43.1995 14.5713H38.3994V19.4285H43.1995V14.5713Z" fill="#11EDD3"/>
<path d="M48.0003 14.5713H43.2002V19.4285H48.0003V14.5713Z" fill="#11EDD3"/>
<path d="M38.4007 4.85693H33.6006V9.71418H38.4007V4.85693Z" fill="#11EDD3"/>
<path d="M33.5999 0H28.7998V4.85725H33.5999V0Z" fill="#11EDD3"/>
<path d="M38.4007 24.2856H33.6006V29.1429H38.4007V24.2856Z" fill="#11EDD3"/>
<path d="M33.5999 29.1426H28.7998V33.9998H33.5999V29.1426Z" fill="#11EDD3"/>
<path d="M43.1995 9.71436H38.3994V14.5716H43.1995V9.71436Z" fill="#11EDD3"/>
<path d="M43.1995 19.4282H38.3994V24.2855H43.1995V19.4282Z" fill="#11EDD3"/>
</svg>
