<svg width="44" height="48" viewBox="0 0 44 48" fill="none" xmlns="http://www.w3.org/2000/svg">
<path d="M28.4409 16.5L24.4409 16.5L24.4409 20.5L28.4409 20.5L28.4409 16.5Z" fill="#161616"/>
<path d="M20.8423 24.2148L16.8423 24.2148L16.8423 28.2148L20.8423 28.2148L20.8423 24.2148Z" fill="#161616"/>
<path d="M16.8423 27.5L12.8423 27.5L12.8423 31.5L16.8423 31.5L16.8423 27.5Z" fill="#161616"/>
<path d="M12.8423 31.5L8.84229 31.5L8.84229 35.5L12.8423 35.5L12.8423 31.5Z" fill="#161616"/>
<path d="M8.84229 35.5L4.84229 35.5L4.84229 39.5L8.84229 39.5L8.84229 35.5Z" fill="#161616"/>
<path d="M4.84229 39.5L0.842285 39.5L0.842285 43.5L4.84229 43.5L4.84229 39.5Z" fill="#161616"/>
<path d="M24.6411 20.3574L20.6411 20.3574L20.6411 24.3574L24.6411 24.3574L24.6411 20.3574Z" fill="#161616"/>
<path d="M39.8423 0.5L35.8423 0.5L35.8423 4.5L39.8423 4.5L39.8423 0.5Z" fill="#161616"/>
<path d="M35.8423 0.5L31.8423 0.5L31.8423 4.5L35.8423 4.5L35.8423 0.5Z" fill="#161616"/>
<path d="M31.8423 0.5L27.8423 0.5L27.8423 4.5L31.8423 4.5L31.8423 0.5Z" fill="#161616"/>
<path d="M43.8423 4.5L39.8423 4.5L39.8423 8.5L43.8423 8.5L43.8423 4.5Z" fill="#161616"/>
<path d="M43.8423 8.5L39.8423 8.5L39.8423 12.5L43.8423 12.5L43.8423 8.5Z" fill="#161616"/>
<path d="M43.8423 12.5L39.8423 12.5L39.8423 16.5L43.8423 16.5L43.8423 12.5Z" fill="#161616"/>
<path d="M31.8423 12.5L27.8423 12.5L27.8423 16.5L31.8423 16.5L31.8423 12.5Z" fill="#161616"/>
<path d="M35.8423 8.5L31.8423 8.5L31.8423 12.5L35.8423 12.5L35.8423 8.5Z" fill="#161616"/>
<path d="M27.8423 32.0986L27.8423 28.0986L23.8423 28.0986L23.8423 32.0986L27.8423 32.0986Z" fill="#161616"/>
<path d="M27.8423 28.3574L27.8423 24.3574L23.8423 24.3574L23.8423 28.3574L27.8423 28.3574Z" fill="#161616"/>
<path d="M24.6411 28.2148L24.6411 24.2148L20.6411 24.2148L20.6411 28.2148L24.6411 28.2148Z" fill="#161616"/>
<path d="M16.8423 20.5L16.8423 16.5L12.8423 16.5L12.8423 20.5L16.8423 20.5Z" fill="#161616"/>
<path d="M12.8423 16.5L12.8423 12.5L8.84229 12.5L8.84228 16.5L12.8423 16.5Z" fill="#161616"/>
<path d="M8.84228 12.5L8.84229 8.5L4.84229 8.5L4.84228 12.5L8.84228 12.5Z" fill="#161616"/>
<path d="M4.84228 8.5L4.84229 4.5L0.842285 4.5L0.842285 8.5L4.84228 8.5Z" fill="#161616"/>
<path d="M43.8423 43.5L43.8423 39.5L39.8423 39.5L39.8423 43.5L43.8423 43.5Z" fill="#161616"/>
<path d="M43.8423 39.5L43.8423 35.5L39.8423 35.5L39.8423 39.5L43.8423 39.5Z" fill="#161616"/>
<path d="M43.8423 35.5L43.8423 31.5L39.8423 31.5L39.8423 35.5L43.8423 35.5Z" fill="#161616"/>
<path d="M43.8423 47.5L43.8423 43.5L39.8423 43.5L39.8423 47.5L43.8423 47.5Z" fill="#161616"/>
<path d="M39.8423 43.5L39.8423 39.5L35.8423 39.5L35.8423 43.5L39.8423 43.5Z" fill="#161616"/>
<path d="M35.8423 47.5L35.8423 43.5L31.8423 43.5L31.8423 47.5L35.8423 47.5Z" fill="#161616"/>
<path d="M31.8423 47.5L31.8423 43.5L27.8423 43.5L27.8423 47.5L31.8423 47.5Z" fill="#161616"/>
<path d="M31.8423 35.5L31.8423 31.5L27.8423 31.5L27.8423 35.5L31.8423 35.5Z" fill="#161616"/>
<path d="M35.8423 39.5L35.8423 35.5L31.8423 35.5L31.8423 39.5L35.8423 39.5Z" fill="#161616"/>
</svg>
