<svg width="44" height="48" viewBox="0 0 44 48" fill="none" xmlns="http://www.w3.org/2000/svg">
<path d="M28.4404 16.5L24.4404 16.5L24.4404 20.5L28.4404 20.5L28.4404 16.5Z" fill="#11EDD3"/>
<path d="M20.8418 24.2158L16.8418 24.2158L16.8418 28.2158L20.8418 28.2158L20.8418 24.2158Z" fill="#11EDD3"/>
<path d="M16.8418 27.5L12.8418 27.5L12.8418 31.5L16.8418 31.5L16.8418 27.5Z" fill="#11EDD3"/>
<path d="M12.8418 31.5L8.8418 31.5L8.8418 35.5L12.8418 35.5L12.8418 31.5Z" fill="#11EDD3"/>
<path d="M8.8418 35.5L4.8418 35.5L4.8418 39.5L8.8418 39.5L8.8418 35.5Z" fill="#11EDD3"/>
<path d="M4.8418 39.5L0.841797 39.5L0.841797 43.5L4.8418 43.5L4.8418 39.5Z" fill="#11EDD3"/>
<path d="M24.6406 20.3574L20.6406 20.3574L20.6406 24.3574L24.6406 24.3574L24.6406 20.3574Z" fill="#11EDD3"/>
<path d="M39.8418 0.500488L35.8418 0.500488L35.8418 4.50049L39.8418 4.50049L39.8418 0.500488Z" fill="#11EDD3"/>
<path d="M35.8418 0.500488L31.8418 0.500488L31.8418 4.50049L35.8418 4.50049L35.8418 0.500488Z" fill="#11EDD3"/>
<path d="M31.8418 0.500488L27.8418 0.500488L27.8418 4.50049L31.8418 4.50049L31.8418 0.500488Z" fill="#11EDD3"/>
<path d="M43.8418 4.5L39.8418 4.5L39.8418 8.5L43.8418 8.5L43.8418 4.5Z" fill="#11EDD3"/>
<path d="M43.8418 8.5L39.8418 8.5L39.8418 12.5L43.8418 12.5L43.8418 8.5Z" fill="#11EDD3"/>
<path d="M43.8418 12.5L39.8418 12.5L39.8418 16.5L43.8418 16.5L43.8418 12.5Z" fill="#11EDD3"/>
<path d="M31.8418 12.5L27.8418 12.5L27.8418 16.5L31.8418 16.5L31.8418 12.5Z" fill="#11EDD3"/>
<path d="M35.8418 8.5L31.8418 8.5L31.8418 12.5L35.8418 12.5L35.8418 8.5Z" fill="#11EDD3"/>
<path d="M27.8418 32.0996L27.8418 28.0996L23.8418 28.0996L23.8418 32.0996L27.8418 32.0996Z" fill="#11EDD3"/>
<path d="M27.8418 28.3574L27.8418 24.3574L23.8418 24.3574L23.8418 28.3574L27.8418 28.3574Z" fill="#11EDD3"/>
<path d="M24.6406 28.2158L24.6406 24.2158L20.6406 24.2158L20.6406 28.2158L24.6406 28.2158Z" fill="#11EDD3"/>
<path d="M16.8418 20.5L16.8418 16.5L12.8418 16.5L12.8418 20.5L16.8418 20.5Z" fill="#11EDD3"/>
<path d="M12.8418 16.5L12.8418 12.5L8.8418 12.5L8.8418 16.5L12.8418 16.5Z" fill="#11EDD3"/>
<path d="M8.8418 12.5L8.8418 8.5L4.8418 8.5L4.8418 12.5L8.8418 12.5Z" fill="#11EDD3"/>
<path d="M4.8418 8.5L4.8418 4.5L0.841797 4.5L0.841797 8.5L4.8418 8.5Z" fill="#11EDD3"/>
<path d="M43.8418 43.5L43.8418 39.5L39.8418 39.5L39.8418 43.5L43.8418 43.5Z" fill="#11EDD3"/>
<path d="M43.8418 39.5L43.8418 35.5L39.8418 35.5L39.8418 39.5L43.8418 39.5Z" fill="#11EDD3"/>
<path d="M43.8418 35.5L43.8418 31.5L39.8418 31.5L39.8418 35.5L43.8418 35.5Z" fill="#11EDD3"/>
<path d="M43.8418 47.5L43.8418 43.5L39.8418 43.5L39.8418 47.5L43.8418 47.5Z" fill="#11EDD3"/>
<path d="M39.8418 43.5L39.8418 39.5L35.8418 39.5L35.8418 43.5L39.8418 43.5Z" fill="#11EDD3"/>
<path d="M35.8418 47.5L35.8418 43.5L31.8418 43.5L31.8418 47.5L35.8418 47.5Z" fill="#11EDD3"/>
<path d="M31.8418 47.5L31.8418 43.5L27.8418 43.5L27.8418 47.5L31.8418 47.5Z" fill="#11EDD3"/>
<path d="M31.8418 35.5L31.8418 31.5L27.8418 31.5L27.8418 35.5L31.8418 35.5Z" fill="#11EDD3"/>
<path d="M35.8418 39.5L35.8418 35.5L31.8418 35.5L31.8418 39.5L35.8418 39.5Z" fill="#11EDD3"/>
</svg>
