<svg width="173" height="128" viewBox="0 0 173 128" fill="none" xmlns="http://www.w3.org/2000/svg">
<g clip-path="url(#clip0)">
<path d="M58.0662 0.386169H43.7578V14.4744H58.0662V0.386169Z" fill="#11EDD3"/>
<path d="M86.6824 0.386169H72.374V14.4744H86.6824V0.386169Z" fill="#11EDD3"/>
<path d="M58.0662 113.09H43.7578V127.178H58.0662V113.09Z" fill="#11EDD3"/>
<path d="M100.991 113.09H86.6826V127.178H100.991V113.09Z" fill="#11EDD3"/>
<path d="M129.607 0.386169H115.299V14.4744H129.607V0.386169Z" fill="#11EDD3"/>
<path d="M129.607 113.09H115.299V127.178H129.607V113.09Z" fill="#11EDD3"/>
<path d="M15.1414 56.7385H0.833008V70.8267H15.1414V56.7385Z" fill="#11EDD3"/>
<path d="M72.3083 43H58V57.0882H72.3083V43Z" fill="#11EDD3"/>
<path d="M115.299 42.6507H100.991V56.7389H115.299V42.6507Z" fill="#11EDD3"/>
<path d="M129.607 70.8274H115.299V84.9156H129.607V70.8274Z" fill="#11EDD3"/>
<path d="M58.0662 70.8274H43.7578V84.9156H58.0662V70.8274Z" fill="#11EDD3"/>
<path d="M29.4504 28.5618H15.1421V42.65H29.4504V28.5618Z" fill="#11EDD3"/>
<path d="M29.4495 84.9149H15.1411V99.0031H29.4495V84.9149Z" fill="#11EDD3"/>
<path d="M43.7585 14.475H29.4502V28.5632H43.7585V14.475Z" fill="#11EDD3"/>
<path d="M43.7585 99.003H29.4502V113.091H43.7585V99.003Z" fill="#11EDD3"/>
<path d="M15.1418 42.6507H0.833496V56.7389H15.1418V42.6507Z" fill="#11EDD3"/>
<path d="M15.1418 70.8265H0.833496V84.9147H15.1418V70.8265Z" fill="#11EDD3"/>
<path d="M143.915 99.0016H158.224V84.9134H143.915V99.0016Z" fill="#11EDD3"/>
<path d="M143.915 42.6503H158.224V28.5621H143.915V42.6503Z" fill="#11EDD3"/>
<path d="M129.606 113.09H143.915V99.0021H129.606V113.09Z" fill="#11EDD3"/>
<path d="M129.606 28.5618H143.915V14.4736L129.606 14.4736V28.5618Z" fill="#11EDD3"/>
<path d="M158.223 84.9149H172.531V70.8266H158.223V84.9149Z" fill="#11EDD3"/>
<path d="M158.223 56.7392H172.531V42.651H158.223V56.7392Z" fill="#11EDD3"/>
<path d="M115.299 84.9147H100.991V99.0029H115.299V84.9147Z" fill="#11EDD3"/>
<path d="M100.991 84.9147H86.6826V99.0029H100.991V84.9147Z" fill="#11EDD3"/>
<path d="M72.3743 84.9147H58.0659V99.0029H72.3743V84.9147Z" fill="#11EDD3"/>
<path d="M172.532 56.7385H158.224V70.8267H172.532V56.7385Z" fill="#11EDD3"/>
</g>
<defs>
<clipPath id="clip0">
<rect x="0.833496" y="0.386719" width="171.698" height="126.792" fill="white"/>
</clipPath>
</defs>
</svg>
